<svg xmlns="http://www.w3.org/2000/svg" version="1.1" width="400" height="400">
<circle cx="200" cy="200" r="200" fill="#FEFEFE"/>
<g transform="translate(25,25) scale(0.88)">
    <path d="M0 0 C1.9720408 0.00028246 3.9440817 0.00012299 5.91612244 -0.0004425 C11.24175679 -0.00072819 16.56736841 0.00513145 21.8929975 0.01213145 C27.46901314 0.01840319 33.04502936 0.01897181 38.62104797 0.02015686 C49.16756171 0.02325894 59.71406501 0.03145714 70.26057416 0.04150635 C82.2726912 0.05270243 94.28480875 0.05818673 106.29692972 0.06320179 C130.99524081 0.07364072 155.69354267 0.09121834 180.3918457 0.11352539 C180.43560711 5.58405753 180.18610924 10.71510264 179.2043457 16.11352539 C179.0727002 16.84192627 178.94105469 17.57032715 178.80541992 18.32080078 C175.2598684 36.86599389 169.08122035 53.48549888 153.3918457 65.11352539 C151.73318736 66.06169526 150.045026 66.9604216 148.3293457 67.80102539 C147.49274414 68.21739258 146.65614258 68.63375977 145.79418945 69.06274414 C141.59549096 70.89924803 138.03408288 71.24047502 133.45367432 71.2515564 C131.62950989 71.2597364 131.62950989 71.2597364 129.76849365 71.26808167 C128.42321783 71.26920148 127.07794194 71.270252 125.73266602 71.27124023 C124.31290531 71.27591111 122.89314609 71.28105513 121.47338867 71.28663635 C118.41342561 71.29791291 115.35347225 71.30635007 112.29349518 71.31275558 C107.4306329 71.32348003 102.56783917 71.34374479 97.70501709 71.36587524 C83.87507336 71.42762384 70.04513127 71.48151168 56.21508789 71.51489258 C48.57804837 71.53340629 40.94112178 71.56256025 33.3041656 71.60289729 C29.27478316 71.6237176 25.2455416 71.63938798 21.2161026 71.64170456 C-4.01083445 71.66047432 -28.24688518 73.03431985 -52.6081543 80.11352539 C-53.28668457 80.30672363 -53.96521484 80.49992187 -54.66430664 80.69897461 C-81.00890085 88.33594686 -104.4028781 103.58536702 -118.57299805 127.41821289 C-123.2013352 136.04864284 -125.57359907 144.5970574 -127.6081543 154.11352539 C-127.78161377 154.72728027 -127.95507324 155.34103516 -128.13378906 155.97338867 C-128.71313981 158.58717592 -128.82494276 161.07870139 -128.92456055 163.75415039 C-128.96645508 164.82407227 -129.00834961 165.89399414 -129.05151367 166.99633789 C-129.11048828 168.6630957 -129.11048828 168.6630957 -129.1706543 170.36352539 C-129.21383789 171.49016602 -129.25702148 172.61680664 -129.30151367 173.77758789 C-129.40747445 176.55611493 -129.50954572 179.3347293 -129.6081543 182.11352539 C-132.88106937 176.50623918 -132.97573061 169.70103205 -133.7331543 163.36352539 C-133.86622482 162.25921677 -133.86622482 162.25921677 -134.00198364 161.13259888 C-135.48683585 148.44038477 -136.01996047 135.82478929 -136.0456543 123.05102539 C-136.05155579 122.22679077 -136.05745728 121.40255615 -136.0635376 120.55334473 C-136.20051725 92.41702176 -128.6679512 66.13525214 -110.6081543 44.11352539 C-109.81022461 43.1402832 -109.01229492 42.16704102 -108.19018555 41.16430664 C-87.59912937 16.99658245 -54.32857988 3.03420512 -23.10826683 0.31823921 C-15.41472996 -0.1317387 -7.7039477 -0.01550744 0 0 Z " fill="#5746A3" transform="translate(188.608154296875,71.886474609375)"/>
    <path d="M0 0 C1.74975928 0.00374126 3.49952069 0.00658295 5.24928284 0.00857544 C9.80134105 0.01612445 14.35326673 0.03569523 18.90527344 0.0579834 C23.57159636 0.07863265 28.2379412 0.08761749 32.90429688 0.09765625 C42.0208908 0.11895155 51.1373874 0.15297862 60.25390625 0.1953125 C60.1166207 2.55113259 59.97388365 4.90641978 59.828125 7.26171875 C59.74908936 8.57342041 59.67005371 9.88512207 59.58862305 11.23657227 C58.17578959 27.94634218 52.28455236 48.75376957 39.25390625 60.1953125 C38.50367188 60.93201172 38.50367188 60.93201172 37.73828125 61.68359375 C26.6424573 72.13129714 11.24648868 72.35138827 -3.16229248 72.91366577 C-18.4107483 73.54572293 -32.98042192 75.11908006 -47.74609375 79.1953125 C-48.64956543 79.44410156 -49.55303711 79.69289063 -50.48388672 79.94921875 C-78.79583127 88.019517 -104.07824585 103.12683353 -118.76953125 129.359375 C-127.71254336 146.18176791 -128.16496221 163.60855248 -128.74609375 182.1953125 C-129.07609375 182.1953125 -129.40609375 182.1953125 -129.74609375 182.1953125 C-130.3018105 178.28559995 -130.85292328 174.37526607 -131.40014648 170.46435547 C-131.67655629 168.4954415 -131.95639754 166.52701023 -132.23632812 164.55859375 C-134.12243281 151.04722565 -134.9853461 137.76374795 -134.99609375 124.1328125 C-134.99676849 123.35973755 -134.99744324 122.5866626 -134.99813843 121.79016113 C-134.95159212 88.15675583 -125.17115514 59.86194309 -101.55859375 35.5078125 C-74.89125909 9.02985971 -36.44549067 -0.23264254 0 0 Z " fill="#5747A3" transform="translate(212.74609375,174.8046875)"/>
    <path d="M0 0 C1.5625 1.0625 1.5625 1.0625 3 3 C2.79173688 4.5793287 2.57234236 6.15770341 2.30883789 7.72875977 C1.6468948 12.59678869 1.61507474 17.53236167 1.4375 22.4375 C1.39431641 23.55060547 1.35113281 24.66371094 1.30664062 25.81054688 C1.20120112 28.54025844 1.09907971 31.27005143 1 34 C-1.48606544 29.53838345 -1.71614777 25.26314155 -2.1875 20.25 C-2.28224609 19.38117188 -2.37699219 18.51234375 -2.47460938 17.6171875 C-3.00677091 12.2062015 -3.03779536 7.35094486 -2 2 C-1.34 1.34 -0.68 0.68 0 0 Z " fill="#61549B" transform="translate(58,220)"/>
    <path d="M0 0 C0.99 0.495 0.99 0.495 2 1 C2.4140625 3.72265625 2.4140625 3.72265625 2.625 7.0625 C2.69976562 8.16722656 2.77453125 9.27195312 2.8515625 10.41015625 C2.90054688 11.26480469 2.94953125 12.11945313 3 13 C3.66 11.35 4.32 9.7 5 8 C5.33 8 5.66 8 6 8 C5.67 17.57 5.34 27.14 5 37 C4.67 37 4.34 37 4 37 C3.42317298 33.01743895 2.85381319 29.03388487 2.29101562 25.04931641 C2.09899874 23.69714379 1.90502971 22.34524677 1.70898438 20.99365234 C0.68969881 13.95746166 -0.2904876 7.1169462 0 0 Z " fill="#5C4F98" transform="translate(79,320)"/>
    <path d="M0 0 C2 2 2 2 2.1953125 5.4765625 C2.18201493 6.85950968 2.15816232 8.24238654 2.125 9.625 C2.11597656 10.33140625 2.10695313 11.0378125 2.09765625 11.765625 C2.07407603 13.51056098 2.03820461 15.25532295 2 17 C1.67 17 1.34 17 1 17 C0.63826036 14.54256214 0.28531831 12.08441207 -0.0625 9.625 C-0.16626953 8.92632812 -0.27003906 8.22765625 -0.37695312 7.5078125 C-1.11328125 2.2265625 -1.11328125 2.2265625 0 0 Z " fill="#6E639C" transform="translate(82,340)"/>
    <path d="M0 0 C1 3 1 3 -0.1875 5.625 C-2 8 -2 8 -6 9 C-4.02 6.03 -2.04 3.06 0 0 Z " fill="#5F5299" transform="translate(101,222)"/>
    <path d="M0 0 C0 4.35251187 -2.06165511 5.92809398 -5 9 C-7.171875 9.6796875 -7.171875 9.6796875 -9 10 C-8.06409496 8.8944811 -7.12620142 7.79064547 -6.1875 6.6875 C-5.66542969 6.07261719 -5.14335938 5.45773438 -4.60546875 4.82421875 C-3.12827531 3.14575321 -1.59960869 1.56117966 0 0 Z " fill="#574B94" transform="translate(115,207)"/>
    <path d="M0 0 C0 3.99904969 -1.72586967 5.80200422 -4 9 C-4.66 8.01 -5.32 7.02 -6 6 C-4.02 4.02 -2.04 2.04 0 0 Z " fill="#6E61A5" transform="translate(89,104)"/>
    <path d="M0 0 C0.66 0.66 1.32 1.32 2 2 C0.02 4.31 -1.96 6.62 -4 9 C-4.66 8.67 -5.32 8.34 -6 8 C-5.566875 7.608125 -5.13375 7.21625 -4.6875 6.8125 C-2.73633776 4.71680722 -1.40989838 2.48410667 0 0 Z " fill="#5D4F9F" transform="translate(118,204)"/>
    <path d="M0 0 C0 0.99 0 1.98 0 3 C-0.66 3.66 -1.32 4.32 -2 5 C-3.32 5 -4.64 5 -6 5 C-6 4.34 -6 3.68 -6 3 C-4.02 2.01 -2.04 1.02 0 0 Z " fill="#5E509A" transform="translate(119,85)"/>
</g>
</svg>